<svg xmlns="http://www.w3.org/2000/svg" fill="none" viewBox="0 0 16 16">
  <path fill="#5753B6" d="M2.8 4.533a2 2 0 1 1 4 0 2 2 0 0 1-4 0Zm2-3.2a3.2 3.2 0 1 0 0 6.4 3.2 3.2 0 0 0 0-6.4Zm6 4a1.2 1.2 0 1 1 2.4 0 1.2 1.2 0 0 1-2.4 0Zm1.2-2.4a2.4 2.4 0 1 0 0 4.8 2.4 2.4 0 0 0 0-4.8Zm-2.202 10.43c.562.228 1.283.37 2.202.37 1.826 0 2.869-.558 3.438-1.247.276-.334.416-.671.487-.93a2.186 2.186 0 0 0 .075-.458v-.022c0-.963-.78-1.743-1.743-1.743H9.743l-.065.001c.315.329.544.74.653 1.199h3.926a.543.543 0 0 1 .54.56.986.986 0 0 1-.029.145 1.309 1.309 0 0 1-.255.484c-.281.34-.939.81-2.513.81-.784 0-1.34-.116-1.736-.275-.086.32-.228.706-.466 1.106ZM1.8 9.333a1.8 1.8 0 0 0-1.8 1.8V11.355a1.661 1.661 0 0 0 .011.166 3.589 3.589 0 0 0 .622 1.655c.655.937 1.904 1.757 4.167 1.757 2.262 0 3.511-.82 4.166-1.756a3.586 3.586 0 0 0 .622-1.655 2.395 2.395 0 0 0 .011-.167v-.222a1.8 1.8 0 0 0-1.8-1.8h-6Zm-.6 2.006V11.133a.6.6 0 0 1 .6-.6h6a.6.6 0 0 1 .6.6V11.339l-.006.063a2.389 2.389 0 0 1-.411 1.087c-.395.564-1.246 1.244-3.183 1.244-1.938 0-2.789-.68-3.184-1.244a2.389 2.389 0 0 1-.41-1.087 1.22 1.22 0 0 1-.006-.063Z"/>
</svg>