<svg xmlns="http://www.w3.org/2000/svg" fill="none" viewBox="0 0 480 200">
  <g fill="#5454A0">
    <path d="M77.335 4.096c-.08-1.565-.965-3.013-2.472-3.697-2.212-1.017-4.885-.02-5.97 2.21a4.474 4.474 0 0 0-.423 1.487h-.04v7.766h8.925V4.096h-.04.02ZM68.45 195.574c.08 1.565.965 3.012 2.472 3.697 2.212 1.018 4.886.019 5.971-2.211a4.46 4.46 0 0 0 .422-1.486h.04v-7.766H68.43v7.766h.04-.02Z"/>
    <path d="M77.344 192.732c-18.062 0-34.04-3.637-47.935-10.911C15.515 174.567 5.712 164.132 0 150.537l15.322-10.206c4.284 11.729 11.945 20.812 22.984 27.248 11.057 6.455 24.527 9.672 40.447 9.672 15.92 0 27.982-3.046 36.877-9.139 8.916-6.093 13.354-14.185 13.354-24.258 0-6.798-2.2-12.718-6.599-17.746-4.4-5.045-12.659-8.853-24.759-11.424l-41.702-8.797c-17.117-3.523-29.293-9.196-36.53-17.06C12.138 80.982 8.53 71.424 8.53 60.17c0-9.368 2.856-17.822 8.548-25.324 5.712-7.502 13.605-13.538 23.698-18.108 10.092-4.57 21.922-6.854 35.468-6.854 17.812 0 32.555 3.465 44.191 10.377 11.637 6.912 19.839 17.289 24.585 31.112l-14.974 9.501c-3.57-12.414-10.15-21.458-19.78-27.075-9.63-5.617-20.976-8.435-34.04-8.435-9.978 0-18.72 1.466-26.188 4.398-7.487 2.932-13.315 6.912-17.464 11.957-4.168 5.046-6.233 10.854-6.233 17.404 0 6.55 2.374 12.947 7.12 18.469 4.748 5.503 13.181 9.558 25.3 12.129l42.763 9.14c16.866 3.522 28.618 8.853 35.276 15.994 6.658 7.159 9.977 15.994 9.977 26.561s-2.856 19.688-8.549 27.419c-5.692 7.73-13.778 13.671-24.238 17.764-10.459 4.094-22.694 6.15-36.703 6.15l.057-.018ZM340.915 8.915c5.127 0 9.675.592 13.665 1.757 3.99 1.164 7.113 2.844 9.387 5.02l-3.99 10.06c-2.467-2.004-5.127-3.436-7.959-4.276-2.854-.84-6.169-1.26-9.965-1.26-9.291 0-16.499 2.348-21.626 7.044-5.126 4.696-7.69 11.664-7.69 20.884v145.595h-14.225V46.884c0-5.689.906-10.9 2.699-15.596 1.792-4.696 4.51-8.666 8.114-11.95 3.604-3.264 8.057-5.822 13.376-7.674 5.32-1.852 11.391-2.768 18.214-2.768v.02ZM368.136 117.761a107.207 107.207 0 0 0-.154 5.614c0 12.604 2.232 23.508 6.678 32.711 4.445 9.205 10.7 16.213 18.743 21.006 8.044 4.793 17.377 7.2 27.999 7.2 10.624 0 20.418-2.349 28.27-7.047 7.851-4.698 13.971-11.19 18.32-19.458l11.373 6.492c-3.406 6.76-7.948 12.546-13.644 17.339-5.696 4.793-12.219 8.498-19.61 11.133-7.389 2.636-15.529 3.953-24.439 3.953-13.066 0-24.728-2.922-34.947-8.746-10.218-5.824-18.243-14.245-24.016-25.245-5.773-11-8.659-24.099-8.659-39.338 0-1.891.038-3.743.134-5.576m0-11.496c.635-12.87 3.465-24.137 8.525-33.762 5.773-11 13.586-19.401 23.439-25.245 9.853-5.824 21.11-8.746 33.811-8.746s23.862 2.826 32.965 8.46a55.931 55.931 0 0 1 8.391 6.359c2.328 2.139 8.601 7.084 12.642 17.186 7.563 18.905 5.388 26.983 6.043 35.843 0 .077-.115 0-1.751 0H466.914c.231-6.453.231-26.849-12.431-41.037-3.772-4.22-7.736-6.875-8.39-7.295-7.236-4.716-16.05-7.084-26.422-7.084-10.373 0-19.225 2.406-26.999 7.199-7.774 4.793-13.836 11.744-18.186 20.872-5.388 11.267-6.427 21.483-6.388 27.232"/>
    <path d="M479.942 110.313c-16.059 0-204.068-.057-214.775-.095.617-11.685.963-21.54-2.965-32.044-2.117-5.68-4.698-12.543-11.225-18.89-16.56-16.108-41.958-12.848-49.14-11.933-13.286 1.696-22.106 6.5-24.994 8.178-15.982 9.264-21.2 24.742-21.797 26.286-.039.076.423.267 1.117.705.693.42.693.42 1.31.82 1.02.648 1.135.686 5.853 3.68l3.389 2.134c5.507-14.22 8.742-18.128 22.605-25.6 7.818-4.213 15.983-4.385 22.183-4.232 5.776.133 15.385.362 24.261 6.862 6.182 4.518 9.936 10.58 11.631 14.297.751 1.62 1.252 3.145 1.309 3.317.79 2.401 1.483 5.833 1.56 11.532.077 5.242.193 10.008.289 14.869a1078.4 1078.4 0 0 1-17.523-.134c-1.309-.019-3.639-.057-6.796 0 0 0-4.642.077-8.935.343-44.307 2.822-57.689 23.847-57.689 23.847-2.542 3.984-7.472 13.515-5.392 29.604 1.887 8.883 6.566 14.582 7.51 15.706 8.934 10.485 22.894 13.115 32.6 13.764 16.039 1.049 35.679-4.27 48.465-15.612 3.947-3.508 6.932-8.197 6.893-9.531-.019-.744 0-.286.154.877 1.079 8.139 4.372 13.458 4.372 13.458 1.366 1.811 3.601 4.326 6.951 6.423 10.494 6.596 26.053 5.586 27.208 1.773.057-.191.057-.324.057-.515 0-5.661-.077-11.666-.212-11.608-1.906.8-7.624 2.993-13.44 1.772-10.109-2.097-10.051-10.751-10.09-11.837-.153-5.089-.077-9.093-.096-12.543-.039-7.72-.039-15.04-.039-27.354 0-1.144.039-2.173.058-3.279 6.855 0 127.374-.838 215.199-.552h.057c.135-18.396.135-4.862.135-14.469l-.058-.019Zm-243.137 58.426a45.08 45.08 0 0 1-8.896 6.481c-14.73 8.196-37.317 9.683-51.104-1.525-2.35-1.907-6.99-5.814-8.511-12.257-1.868-7.968 2.157-14.888 3.1-16.47 9.897-16.946 38.03-18.833 56.284-20.073 8.53-.571 15.634-.361 20.448-.076.867.058 1.695.095 2.503.134-.037 6.023-.211 12.79-.577 21.044-.25 5.357-4.621 14.716-13.229 22.761l-.018-.019Z"/>
    <path d="M429.421 84.074c0-4.394-3.556-7.962-7.933-7.962-4.378 0-7.934 3.568-7.934 7.962 0 2.475 1.147 4.662 2.924 6.12v10.629h10.019V90.194c1.777-1.458 2.924-3.645 2.924-6.12Z"/>
  </g>
  <defs>
    <clipPath id="a">
      <path fill="#fff" d="M0 0h480v200H0z"/>
    </clipPath>
  </defs>
</svg>