<svg xmlns="http://www.w3.org/2000/svg" fill="none" viewBox="0 0 16 16">
  <path fill="#5753B6" d="m9.853 2.143 2.994 2.921a.479.479 0 0 1 .049.635l-.049.054-2.993 2.929a.508.508 0 0 1-.707 0 .479.479 0 0 1-.049-.634l.049-.055 2.142-2.095h-7.79a.496.496 0 0 1-.494-.42L3 5.41c0-.247.188-.45.432-.483l.068-.005h7.79l-2.143-2.09a.479.479 0 0 1-.048-.636l.048-.054a.509.509 0 0 1 .65-.047l.056.047 2.994 2.921-2.994-2.921Zm3.143 9.379.004.066c0 .247-.188.45-.432.483l-.067.005-7.79-.001 2.145 2.093a.479.479 0 0 1 .049.634l-.049.055a.509.509 0 0 1-.65.048l-.056-.048-2.997-2.922a.479.479 0 0 1-.049-.635l.049-.055L6.15 8.318a.508.508 0 0 1 .706 0 .479.479 0 0 1 .049.634l-.049.055L4.714 11.1H12.5c.252 0 .461.184.495.422l.004.066-.005-.066Z"/>
</svg>