<svg xmlns="http://www.w3.org/2000/svg" fill="none" viewBox="0 0 16 16">
  <path fill="#5753B6" d="M6.863.435a1.847 1.847 0 0 1 2.38 0l5.54 4.672c.417.35.657.867.657 1.411v8.046c0 .793-.643 1.436-1.436 1.436H11.13a1.436 1.436 0 0 1-1.436-1.436V10.05a.205.205 0 0 0-.205-.205H6.617a.205.205 0 0 0-.205.205v4.514c0 .793-.643 1.436-1.436 1.436H2.103a1.436 1.436 0 0 1-1.436-1.436V6.518c0-.544.24-1.06.656-1.411L6.863.435Zm1.587.941a.616.616 0 0 0-.794 0l-5.54 4.672a.616.616 0 0 0-.218.47v8.046c0 .113.092.205.205.205h2.873a.205.205 0 0 0 .205-.205V10.05c0-.794.643-1.437 1.436-1.437H9.49c.793 0 1.436.643 1.436 1.437v4.514c0 .113.092.205.205.205h2.873a.205.205 0 0 0 .205-.205V6.518a.615.615 0 0 0-.219-.47L8.45 1.376Z"/>
</svg>