<svg xmlns="http://www.w3.org/2000/svg" fill="none" viewBox="0 0 16 16">
  <path fill="#5753B6" d="M5.103 3.282a.82.82 0 1 1-1.641 0 .82.82 0 0 1 1.64 0Zm-.82 3.282a.82.82 0 1 0-.001-1.64.82.82 0 0 0 0 1.64Zm.82 1.641a.82.82 0 1 1-1.641 0 .82.82 0 0 1 1.64 0Zm0 2.462a.82.82 0 1 1-1.642 0 .82.82 0 0 1 1.642 0Zm-.82 3.282a.82.82 0 1 0 0-1.641.82.82 0 0 0-.001 1.64Zm5.743-2.462a.82.82 0 1 0 0-1.641.82.82 0 0 0 0 1.641Zm2.461 0a.82.82 0 1 0 0-1.64.82.82 0 0 0 0 1.64Zm0-2.461a.82.82 0 1 0 0-1.641.82.82 0 0 0 0 1.64Zm-1.64-.82a.82.82 0 1 1-1.642 0 .82.82 0 0 1 1.641 0Zm1.64-1.642a.82.82 0 1 0 0-1.641.82.82 0 0 0 0 1.641Zm-1.64-.82a.82.82 0 1 1-1.642 0 .82.82 0 0 1 1.641 0Zm-.821-3.282v-.616C10.026.826 9.199 0 8.179 0H2.846C1.826 0 1 .827 1 1.846v13.539c0 .34.276.615.615.615h13.539c.34 0 .615-.275.615-.615V4.308c0-1.02-.826-1.846-1.846-1.846h-3.897ZM2.23 1.846c0-.34.275-.615.615-.615H8.18c.34 0 .616.275.616.615v.616H8.59c-1.02 0-1.846.826-1.846 1.846v10.461H2.23V1.846Zm8.205 12.923v-1.23h1.64v1.23h-1.64Zm2.872-1.846a.615.615 0 0 0-.616-.615H9.821a.615.615 0 0 0-.616.615v1.846h-1.23V4.308c0-.34.275-.616.615-.616h5.333c.34 0 .616.276.616.616v10.461h-1.231v-1.846Z"/>
</svg>